<?xml version="1.0" encoding="utf-8"?>
<!-- Generator: Adobe Illustrator 24.1.0, SVG Export Plug-In . SVG Version: 6.00 Build 0)  -->
<svg version="1.1" id="Layer_1" xmlns="http://www.w3.org/2000/svg" xmlns:xlink="http://www.w3.org/1999/xlink" x="0px" y="0px"
	 viewBox="0 0 215 458" style="enable-background:new 0 0 215 458;" xml:space="preserve">
<style type="text/css">
	.st0{fill:#F2F2F2;}
	.st1{fill:#D8D8D8;}
	.st2{fill:#EB5055;}
	.st3{fill-rule:evenodd;clip-rule:evenodd;fill:#ACACAC;}
	.st4{fill:#FAFAFA;}
	.st5{fill-rule:evenodd;clip-rule:evenodd;fill:#BABABA;}
	.st6{fill:none;stroke:#C6C6C6;stroke-width:4;stroke-miterlimit:10;}
</style>
<g id="Layer_1_1_">
	<path id="Base" class="st0" d="M188,0H27C12.1,0,0,12.1,0,27v404c0,14.9,12.1,27,27,27h161c14.9,0,27-12.1,27-27V27
		C215,12.1,202.9,0,188,0z"/>
</g>
<g id="Layer_2_1_">
	<circle id="Outer_Circle" class="st1" cx="107.5" cy="21" r="4.4"/>
</g>
<g id="Layer_3">
	<circle id="Red_Dot" class="st2" cx="107.5" cy="21" r="2"/>
</g>
<g id="Layer_4">
	<path id="Speaker" class="st3" d="M92,36h31c1.4,0,2.5,1.1,2.5,2.5S124.4,41,123,41H92c-1.4,0-2.5-1.1-2.5-2.5S90.6,36,92,36z"/>
</g>
<g id="Layer_5">
	<circle id="Circle" class="st4" cx="107.5" cy="428" r="20.9"/>
</g>
<g id="Layer_6">
	<path id="Square" class="st5" d="M103.1,419.9h8.8c2.1,0,3.7,1.7,3.7,3.7v8.8c0,2.1-1.7,3.7-3.7,3.7l0,0h-8.8
		c-2.1,0-3.7-1.7-3.7-3.7l0,0v-8.8C99.4,421.5,101,419.9,103.1,419.9z M104,421.6h6.9c1.6,0,2.9,1.3,2.9,2.9v6.9
		c0,1.6-1.3,2.9-2.9,2.9l0,0H104c-1.6,0-2.9-1.3-2.9-2.9v-6.9C101.1,422.9,102.4,421.6,104,421.6L104,421.6L104,421.6z"/>
</g>
<g id="Layer_7">
	<g>
		<path class="st6" d="M203,396c0,1.6-1.4,3-3,3H15c-1.6,0-3-1.4-3-3V67c0-1.7,1.4-3,3-3h185c1.6,0,3,1.3,3,3V396L203,396z"/>
	</g>
</g>
</svg>
